<svg width="505" height="524" viewBox="0 0 505 524" fill="none" xmlns="http://www.w3.org/2000/svg">
<path d="M438.368 291.56C549.868 204.06 542.868 493.56 157.368 523.06C21.8686 486.56 178.368 325.06 178.368 230.56C178.368 162.076 -178.132 98.014 116.868 17.5595C562.368 -103.94 130.868 450.56 438.368 291.56Z" fill="#1C588F"/>
<path d="M496.868 137.06C522.868 160.56 474.958 227.56 448.368 258.06C431.368 277.56 354.388 319.173 344.368 284.56C333.368 246.56 367.626 165.56 401.868 165.56C476.868 174.56 468.368 120.56 496.868 137.06Z" fill="#1C588F"/>
<path d="M421.868 88.0595C421.868 102.971 404.868 127.56 387.868 115.06C373.509 115.06 361.868 102.971 361.868 88.0595C361.868 73.1479 373.509 61.0595 387.868 61.0595C402.227 61.0595 421.868 73.1479 421.868 88.0595Z" fill="#1C588F"/>
<path d="M487.868 73.0595C487.868 79.9631 496.705 94.0595 487.868 94.0595C479.031 94.0595 455.868 79.9631 455.868 73.0595C455.868 66.156 463.031 60.5595 471.868 60.5595C480.705 60.5595 487.868 66.156 487.868 73.0595Z" fill="#1C588F"/>
</svg>
